<svg xmlns="http://www.w3.org/2000/svg" xmlns:xlink="http://www.w3.org/1999/xlink" contentStyleType="text/css" data-diagram-type="CLASS" height="1058px" preserveAspectRatio="none" style="width:595px;height:1058px;background:#FFFFFF;" version="1.1" viewBox="0 0 595 1058" width="595px" zoomAndPan="magnify"><?plantuml $version$?><defs/><g><g class="title" data-source-line="1"><text fill="#000000" font-family="sans-serif" font-size="14" font-weight="700" lengthAdjust="spacing" textLength="380.7705" x="103.8074" y="24.9659">&#171;&#1050;&#1072;&#1083;&#1100;&#1082;&#1091;&#1083;&#1103;&#1090;&#1086;&#1088; &#1090;&#1086;&#1088;&#1090;&#1080;&#1082;&#1086;&#1074;&#187; &#8212; &#1076;&#1080;&#1072;&#1075;&#1088;&#1072;&#1084;&#1084;&#1072; &#1082;&#1083;&#1072;&#1089;&#1089;&#1086;&#1074; MVC</text></g><!--class Input--><g class="entity" data-qualified-name="Input" data-source-line="6" id="ent0001"><rect fill="#F1F1F1" height="186.8874" rx="2.5" ry="2.5" style="stroke:#181818;stroke-width:0.5;" width="168.2254" x="203.18" y="856.8679"/><ellipse cx="265.1858" cy="879.5739" fill="#ADD1B2" rx="11" ry="11" style="stroke:#181818;stroke-width:1;"/><path d="M264.6545,886.4958 Q262.9045,886.4958 261.7639,885.7614 Q260.6389,885.0114 260.0764,883.6677 Q259.5295,882.3083 259.5295,880.5114 Q259.5295,878.4802 260.1858,877.0271 Q260.842,875.5739 262.1233,874.7927 Q263.4045,874.0114 265.2795,874.0114 Q266.1701,874.0114 266.842,874.1989 Q267.5139,874.3708 268.2014,874.7146 L267.3889,876.7302 Q266.7639,876.4177 266.217,876.2927 Q265.6858,876.1677 265.2014,876.1677 Q264.0295,876.1677 263.3264,876.6989 Q262.6233,877.2302 262.3264,878.1833 Q262.0295,879.1364 262.0295,880.4021 Q262.0295,882.4177 262.7483,883.3864 Q263.467,884.3396 265.0608,884.3396 Q265.6545,884.3396 266.2795,884.1833 Q266.9045,884.0271 267.7326,883.6521 L267.7326,885.8708 Q266.9983,886.1833 266.2014,886.3396 Q265.4201,886.4958 264.6545,886.4958 Z " fill="#000000"/><text fill="#000000" font-family="sans-serif" font-size="12" font-style="italic" lengthAdjust="spacing" textLength="36.0123" x="285.5366" y="874.696">&#171;data&#187;</text><text fill="#000000" font-family="sans-serif" font-size="14" lengthAdjust="spacing" textLength="35.7139" x="285.6858" y="893.178">Input</text><line style="stroke:#181818;stroke-width:0.5;" x1="204.18" x2="370.4054" y1="902.2799" y2="902.2799"/><text fill="#000000" font-family="sans-serif" font-size="14" lengthAdjust="spacing" textLength="156.2254" x="209.18" y="921.2459">+cigarettes_per_day: int</text><text fill="#000000" font-family="sans-serif" font-size="14" lengthAdjust="spacing" textLength="130.7455" x="209.18" y="940.3138">+pack_price: double</text><text fill="#000000" font-family="sans-serif" font-size="14" lengthAdjust="spacing" textLength="107.8556" x="209.18" y="959.3817">+tar_mg: double</text><text fill="#000000" font-family="sans-serif" font-size="14" lengthAdjust="spacing" textLength="141.8334" x="209.18" y="978.4496">+nicotine_mg: double</text><text fill="#000000" font-family="sans-serif" font-size="14" lengthAdjust="spacing" textLength="130.9275" x="209.18" y="997.5176">+smoking_years: int</text><text fill="#000000" font-family="sans-serif" font-size="14" lengthAdjust="spacing" textLength="130.0315" x="209.18" y="1016.5855">+cake_price: double</text><text fill="#000000" font-family="sans-serif" font-size="14" lengthAdjust="spacing" textLength="147.3494" x="209.18" y="1035.6534">+orange_price: double</text></g><!--class Result--><g class="entity" data-qualified-name="Result" data-source-line="16" id="ent0002"><rect fill="#F1F1F1" height="167.8195" rx="2.5" ry="2.5" style="stroke:#181818;stroke-width:0.5;" width="174.1754" x="406.21" y="866.4079"/><ellipse cx="468.7338" cy="889.1139" fill="#ADD1B2" rx="11" ry="11" style="stroke:#181818;stroke-width:1;"/><path d="M468.2025,896.0358 Q466.4525,896.0358 465.3119,895.3014 Q464.1869,894.5514 463.6244,893.2077 Q463.0775,891.8483 463.0775,890.0514 Q463.0775,888.0202 463.7338,886.5671 Q464.39,885.1139 465.6713,884.3327 Q466.9525,883.5514 468.8275,883.5514 Q469.7181,883.5514 470.39,883.7389 Q471.0619,883.9108 471.7494,884.2546 L470.9369,886.2702 Q470.3119,885.9577 469.765,885.8327 Q469.2338,885.7077 468.7494,885.7077 Q467.5775,885.7077 466.8744,886.2389 Q466.1713,886.7702 465.8744,887.7233 Q465.5775,888.6764 465.5775,889.9421 Q465.5775,891.9577 466.2963,892.9264 Q467.015,893.8796 468.6088,893.8796 Q469.2025,893.8796 469.8275,893.7233 Q470.4525,893.5671 471.2806,893.1921 L471.2806,895.4108 Q470.5463,895.7233 469.7494,895.8796 Q468.9681,896.0358 468.2025,896.0358 Z " fill="#000000"/><text fill="#000000" font-family="sans-serif" font-size="12" font-style="italic" lengthAdjust="spacing" textLength="36.0123" x="491.5416" y="884.236">&#171;data&#187;</text><text fill="#000000" font-family="sans-serif" font-size="14" lengthAdjust="spacing" textLength="40.6278" x="489.2338" y="902.718">Result</text><line style="stroke:#181818;stroke-width:0.5;" x1="407.21" x2="579.3854" y1="911.8199" y2="911.8199"/><text fill="#000000" font-family="sans-serif" font-size="14" lengthAdjust="spacing" textLength="126.4335" x="412.21" y="930.7859">+cigarettes: double</text><text fill="#000000" font-family="sans-serif" font-size="14" lengthAdjust="spacing" textLength="149.6314" x="412.21" y="949.8538">+money_spent: double</text><text fill="#000000" font-family="sans-serif" font-size="14" lengthAdjust="spacing" textLength="128.1975" x="412.21" y="968.9217">+tar_grams: double</text><text fill="#000000" font-family="sans-serif" font-size="14" lengthAdjust="spacing" textLength="162.1754" x="412.21" y="987.9896">+nicotine_grams: double</text><text fill="#000000" font-family="sans-serif" font-size="14" lengthAdjust="spacing" textLength="97.9016" x="412.21" y="1007.0576">+cakes: double</text><text fill="#000000" font-family="sans-serif" font-size="14" lengthAdjust="spacing" textLength="115.2196" x="412.21" y="1026.1255">+oranges: double</text></g><!--class State--><g class="entity" data-qualified-name="State" data-source-line="25" id="ent0003"><rect fill="#F1F1F1" height="91.5479" rx="2.5" ry="2.5" style="stroke:#181818;stroke-width:0.5;" width="176.0794" x="323.26" y="682.2579"/><ellipse cx="390.2777" cy="704.9639" fill="#ADD1B2" rx="11" ry="11" style="stroke:#181818;stroke-width:1;"/><path d="M389.7465,711.8858 Q387.9965,711.8858 386.8559,711.1514 Q385.7309,710.4014 385.1684,709.0577 Q384.6215,707.6983 384.6215,705.9014 Q384.6215,703.8702 385.2777,702.4171 Q385.934,700.9639 387.2152,700.1827 Q388.4965,699.4014 390.3715,699.4014 Q391.2621,699.4014 391.934,699.5889 Q392.6059,699.7608 393.2934,700.1046 L392.4809,702.1202 Q391.8559,701.8077 391.309,701.6827 Q390.7777,701.5577 390.2934,701.5577 Q389.1215,701.5577 388.4184,702.0889 Q387.7152,702.6202 387.4184,703.5733 Q387.1215,704.5264 387.1215,705.7921 Q387.1215,707.8077 387.8402,708.7764 Q388.559,709.7296 390.1527,709.7296 Q390.7465,709.7296 391.3715,709.5733 Q391.9965,709.4171 392.8246,709.0421 L392.8246,711.2608 Q392.0902,711.5733 391.2934,711.7296 Q390.5121,711.8858 389.7465,711.8858 Z " fill="#000000"/><text fill="#000000" font-family="sans-serif" font-size="12" font-style="italic" lengthAdjust="spacing" textLength="36.0123" x="409.5435" y="700.086">&#171;data&#187;</text><text fill="#000000" font-family="sans-serif" font-size="14" lengthAdjust="spacing" textLength="33.5439" x="410.7777" y="718.568">State</text><line style="stroke:#181818;stroke-width:0.5;" x1="324.26" x2="498.3394" y1="727.6699" y2="727.6699"/><text fill="#000000" font-family="sans-serif" font-size="14" lengthAdjust="spacing" textLength="156.0434" x="329.26" y="746.6359">+input: optional&lt;Input&gt;</text><text fill="#000000" font-family="sans-serif" font-size="14" lengthAdjust="spacing" textLength="164.0794" x="329.26" y="765.7038">+result: optional&lt;Result&gt;</text></g><!--class IObserver--><g class="entity" data-qualified-name="IObserver" data-source-line="30" id="ent0004"><rect fill="#F1F1F1" height="72.4799" rx="2.5" ry="2.5" style="stroke:#181818;stroke-width:0.5;" width="148.5835" x="19" y="914.0779"/><ellipse cx="59.2656" cy="936.7839" fill="#B4A7E5" rx="11" ry="11" style="stroke:#181818;stroke-width:1;"/><path d="M55.2968,943.2839 L55.2968,941.5808 L57.6562,941.3152 L57.6562,933.1121 L55.2968,932.8464 L55.2968,931.1433 L62.4374,931.1433 L62.4374,932.8464 L60.0156,933.1121 L60.0156,941.3152 L62.4374,941.5808 L62.4374,943.2839 L55.2968,943.2839 Z " fill="#000000"/><text fill="#000000" font-family="sans-serif" font-size="12" font-style="italic" lengthAdjust="spacing" textLength="59.3644" x="79.4168" y="931.906">&#171;Observer&#187;</text><text fill="#000000" font-family="sans-serif" font-size="14" font-style="italic" lengthAdjust="spacing" textLength="60.4378" x="78.8801" y="950.388">IObserver</text><line style="stroke:#181818;stroke-width:0.5;" x1="20" x2="166.5835" y1="959.4899" y2="959.4899"/><text fill="#000000" font-family="sans-serif" font-size="14" lengthAdjust="spacing" textLength="136.5835" x="25" y="978.4559">+update(state: State)</text></g><!--class Subject--><g class="entity" data-qualified-name="Subject" data-source-line="34" id="ent0005"><rect fill="#F1F1F1" height="137.6837" rx="2.5" ry="2.5" style="stroke:#181818;stroke-width:0.5;" width="225.3032" x="62.64" y="659.1879"/><ellipse cx="137.3174" cy="681.8939" fill="#A9DCDF" rx="11" ry="11" style="stroke:#181818;stroke-width:1;"/><path d="M132.4892,687.6439 L135.833,675.4564 L138.9736,675.4564 L142.3486,687.6439 L139.8799,687.6439 L139.1455,684.6283 L135.6299,684.6283 L134.8799,687.6439 L132.4892,687.6439 Z M136.8955,679.5971 L136.1455,682.5971 L138.6611,682.5971 L137.9424,679.5971 Q137.8017,679.0189 137.6767,678.4721 Q137.5517,677.9096 137.4111,677.3314 Q137.3017,677.9096 137.1611,678.4721 Q137.0205,679.0189 136.8955,679.5971 Z " fill="#000000"/><text fill="#000000" font-family="sans-serif" font-size="12" font-style="italic" lengthAdjust="spacing" textLength="71.4485" x="155.8174" y="677.016">&#171;Observable&#187;</text><text fill="#000000" font-family="sans-serif" font-size="14" font-style="italic" lengthAdjust="spacing" textLength="44.8698" x="169.1067" y="695.498">Subject</text><line style="stroke:#181818;stroke-width:0.5;" x1="63.64" x2="286.9432" y1="704.5999" y2="704.5999"/><text fill="#000000" font-family="sans-serif" font-size="14" lengthAdjust="spacing" textLength="213.3032" x="68.64" y="723.5659">-observers_: vector&lt;IObserver*&gt;</text><line style="stroke:#181818;stroke-width:0.5;" x1="63.64" x2="286.9432" y1="731.6679" y2="731.6679"/><text fill="#000000" font-family="sans-serif" font-size="14" lengthAdjust="spacing" textLength="188.7053" x="68.64" y="750.6338">+attach(observer: IObserver)</text><text fill="#000000" font-family="sans-serif" font-size="14" lengthAdjust="spacing" textLength="192.3033" x="68.64" y="769.7017">+detach(observer: IObserver)</text><text fill="#000000" font-family="sans-serif" font-size="14" lengthAdjust="spacing" textLength="128.6875" x="68.64" y="788.7696">#notify(state: State)</text></g><!--class Model--><g class="entity" data-qualified-name="Model" data-source-line="41" id="ent0006"><rect fill="#F1F1F1" height="137.6837" rx="2.5" ry="2.5" style="stroke:#181818;stroke-width:0.5;" width="198.6193" x="75.99" y="461.5079"/><ellipse cx="150.4067" cy="484.2139" fill="#ADD1B2" rx="11" ry="11" style="stroke:#181818;stroke-width:1;"/><path d="M149.8755,491.1358 Q148.1255,491.1358 146.9848,490.4014 Q145.8598,489.6514 145.2973,488.3077 Q144.7505,486.9483 144.7505,485.1514 Q144.7505,483.1202 145.4067,481.6671 Q146.063,480.2139 147.3442,479.4327 Q148.6255,478.6514 150.5005,478.6514 Q151.3911,478.6514 152.063,478.8389 Q152.7348,479.0108 153.4223,479.3546 L152.6098,481.3702 Q151.9848,481.0577 151.438,480.9327 Q150.9067,480.8077 150.4223,480.8077 Q149.2505,480.8077 148.5473,481.3389 Q147.8442,481.8702 147.5473,482.8233 Q147.2505,483.7764 147.2505,485.0421 Q147.2505,487.0577 147.9692,488.0264 Q148.688,488.9796 150.2817,488.9796 Q150.8755,488.9796 151.5005,488.8233 Q152.1255,488.6671 152.9536,488.2921 L152.9536,490.5108 Q152.2192,490.8233 151.4223,490.9796 Q150.6411,491.1358 149.8755,491.1358 Z " fill="#000000"/><text fill="#000000" font-family="sans-serif" font-size="12" font-style="italic" lengthAdjust="spacing" textLength="44.3283" x="169.3855" y="479.336">&#171;Model&#187;</text><text fill="#000000" font-family="sans-serif" font-size="14" lengthAdjust="spacing" textLength="41.2858" x="170.9067" y="497.818">Model</text><line style="stroke:#181818;stroke-width:0.5;" x1="76.99" x2="273.6093" y1="506.9199" y2="506.9199"/><text fill="#000000" font-family="sans-serif" font-size="14" lengthAdjust="spacing" textLength="84.2237" x="81.99" y="525.8859">-state_: State</text><line style="stroke:#181818;stroke-width:0.5;" x1="76.99" x2="273.6093" y1="533.9879" y2="533.9879"/><text fill="#000000" font-family="sans-serif" font-size="14" lengthAdjust="spacing" textLength="89.9077" x="81.99" y="552.9538">+state(): State</text><text fill="#000000" font-family="sans-serif" font-size="14" lengthAdjust="spacing" textLength="186.6193" x="81.99" y="572.0217">+calculate(input, error): bool</text><text fill="#000000" font-family="sans-serif" font-size="14" lengthAdjust="spacing" textLength="176.7493" x="81.99" y="591.0896">-validate(input, error): bool</text></g><!--class Controller--><g class="entity" data-qualified-name="Controller" data-source-line="48" id="ent0007"><rect fill="#F1F1F1" height="156.7516" rx="2.5" ry="2.5" style="stroke:#181818;stroke-width:0.5;" width="220.8792" x="63.86" y="244.7479"/><ellipse cx="136.9607" cy="267.4539" fill="#ADD1B2" rx="11" ry="11" style="stroke:#181818;stroke-width:1;"/><path d="M136.4295,274.3758 Q134.6795,274.3758 133.5389,273.6414 Q132.4139,272.8914 131.8514,271.5477 Q131.3045,270.1883 131.3045,268.3914 Q131.3045,266.3602 131.9607,264.9071 Q132.617,263.4539 133.8982,262.6727 Q135.1795,261.8914 137.0545,261.8914 Q137.9451,261.8914 138.617,262.0789 Q139.2889,262.2508 139.9764,262.5946 L139.1639,264.6102 Q138.5389,264.2977 137.992,264.1727 Q137.4607,264.0477 136.9764,264.0477 Q135.8045,264.0477 135.1014,264.5789 Q134.3982,265.1102 134.1014,266.0633 Q133.8045,267.0164 133.8045,268.2821 Q133.8045,270.2977 134.5232,271.2664 Q135.242,272.2196 136.8357,272.2196 Q137.4295,272.2196 138.0545,272.0633 Q138.6795,271.9071 139.5076,271.5321 L139.5076,273.7508 Q138.7732,274.0633 137.9764,274.2196 Q137.1951,274.3758 136.4295,274.3758 Z " fill="#000000"/><text fill="#000000" font-family="sans-serif" font-size="12" font-style="italic" lengthAdjust="spacing" textLength="64.6684" x="158.2154" y="262.576">&#171;Controller&#187;</text><text fill="#000000" font-family="sans-serif" font-size="14" lengthAdjust="spacing" textLength="66.1777" x="157.4607" y="281.058">Controller</text><line style="stroke:#181818;stroke-width:0.5;" x1="64.86" x2="283.7392" y1="290.1599" y2="290.1599"/><text fill="#000000" font-family="sans-serif" font-size="14" lengthAdjust="spacing" textLength="111.3276" x="69.86" y="309.1259">-model_: Model&amp;</text><line style="stroke:#181818;stroke-width:0.5;" x1="64.86" x2="283.7392" y1="317.2279" y2="317.2279"/><text fill="#000000" font-family="sans-serif" font-size="14" lengthAdjust="spacing" textLength="167.4393" x="69.86" y="336.1938">+open_input_dialog(view)</text><text fill="#000000" font-family="sans-serif" font-size="14" lengthAdjust="spacing" textLength="134.3995" x="69.86" y="355.2617">+submit(fields, view)</text><text fill="#000000" font-family="sans-serif" font-size="14" lengthAdjust="spacing" textLength="180.3473" x="69.86" y="374.3296">-parse_int(text, result): bool</text><text fill="#000000" font-family="sans-serif" font-size="14" lengthAdjust="spacing" textLength="208.8792" x="69.86" y="393.3976">-parse_double(text, result): bool</text></g><!--class View--><g class="entity" data-qualified-name="View" data-source-line="56" id="ent0008"><rect fill="#F1F1F1" height="137.6837" rx="2.5" ry="2.5" style="stroke:#181818;stroke-width:0.5;" width="170.5914" x="7" y="47.0679"/><ellipse cx="58.5875" cy="69.7739" fill="#ADD1B2" rx="11" ry="11" style="stroke:#181818;stroke-width:1;"/><path d="M58.0562,76.6958 Q56.3062,76.6958 55.1656,75.9614 Q54.0406,75.2114 53.4781,73.8677 Q52.9312,72.5083 52.9312,70.7114 Q52.9312,68.6802 53.5875,67.2271 Q54.2437,65.7739 55.525,64.9927 Q56.8062,64.2114 58.6812,64.2114 Q59.5718,64.2114 60.2437,64.3989 Q60.9156,64.5708 61.6031,64.9146 L60.7906,66.9302 Q60.1656,66.6177 59.6187,66.4927 Q59.0875,66.3677 58.6031,66.3677 Q57.4312,66.3677 56.7281,66.8989 Q56.025,67.4302 55.7281,68.3833 Q55.4312,69.3364 55.4312,70.6021 Q55.4312,72.6177 56.15,73.5864 Q56.8687,74.5396 58.4625,74.5396 Q59.0562,74.5396 59.6812,74.3833 Q60.3062,74.2271 61.1343,73.8521 L61.1343,76.0708 Q60.4,76.3833 59.6031,76.5396 Q58.8218,76.6958 58.0562,76.6958 Z " fill="#000000"/><text fill="#000000" font-family="sans-serif" font-size="12" font-style="italic" lengthAdjust="spacing" textLength="62.9165" x="77.0875" y="64.896">&#171;View, GTK&#187;</text><text fill="#000000" font-family="sans-serif" font-size="14" lengthAdjust="spacing" textLength="30.9119" x="93.0898" y="83.378">View</text><line style="stroke:#181818;stroke-width:0.5;" x1="8" x2="176.5914" y1="92.4799" y2="92.4799"/><text fill="#000000" font-family="sans-serif" font-size="14" lengthAdjust="spacing" textLength="158.5914" x="13" y="111.4459">-controller_: Controller&amp;</text><line style="stroke:#181818;stroke-width:0.5;" x1="8" x2="176.5914" y1="119.5479" y2="119.5479"/><text fill="#000000" font-family="sans-serif" font-size="14" lengthAdjust="spacing" textLength="130.8435" x="13" y="138.5138">+update(state): void</text><text fill="#000000" font-family="sans-serif" font-size="14" lengthAdjust="spacing" textLength="149.9254" x="13" y="157.5817">+show_error(message)</text><text fill="#000000" font-family="sans-serif" font-size="14" lengthAdjust="spacing" textLength="88.6897" x="13" y="176.6496">-clear_result()</text></g><!--reverse link Model to State--><g class="link" data-entity-1="ent0006" data-entity-2="ent0003" data-link-type="composition" data-source-line="63" id="lnk9"><path codeLine="63" d="M287.04,530.7579 C351.45,530.7579 411.3,530.7579 411.3,530.7579 C411.3,530.7579 411.3,623.4679 411.3,681.7779" fill="none" id="Model-backto-State" style="stroke:#181818;stroke-width:1;"/><polygon fill="#181818" points="275.04,530.7579,281.04,534.7579,287.04,530.7579,281.04,526.7579,275.04,530.7579" style="stroke:#181818;stroke-width:1;stroke-linejoin:miter;stroke-miterlimit:10;"/></g><!--reverse link State to Input--><g class="link" data-entity-1="ent0003" data-entity-2="ent0001" data-link-type="composition" data-source-line="64" id="lnk10"><path codeLine="64" d="M347.33,786.0879 C347.33,809.9979 347.33,828.1079 347.33,856.6379" fill="none" id="State-backto-Input" style="stroke:#181818;stroke-width:1;"/><polygon fill="#181818" points="347.33,774.0879,343.33,780.0879,347.33,786.0879,351.33,780.0879,347.33,774.0879" style="stroke:#181818;stroke-width:1;stroke-linejoin:miter;stroke-miterlimit:10;"/></g><!--reverse link State to Result--><g class="link" data-entity-1="ent0003" data-entity-2="ent0002" data-link-type="composition" data-source-line="65" id="lnk11"><path codeLine="65" d="M452.77,786.0879 C452.77,812.6679 452.77,834.9079 452.77,866.1279" fill="none" id="State-backto-Result" style="stroke:#181818;stroke-width:1;"/><polygon fill="#181818" points="452.77,774.0879,448.77,780.0879,452.77,786.0879,456.77,780.0879,452.77,774.0879" style="stroke:#181818;stroke-width:1;stroke-linejoin:miter;stroke-miterlimit:10;"/></g><!--link Model to Subject--><g class="link" data-entity-1="ent0006" data-entity-2="ent0005" data-link-type="extension" data-source-line="66" id="lnk12"><path codeLine="66" d="M175.3,599.4879 C175.3,618.7479 175.3,621.6679 175.3,640.9279" fill="none" id="Model-to-Subject" style="stroke:#181818;stroke-width:1;"/><polygon fill="none" points="175.3,658.9279,181.3,640.9279,169.3,640.9279,175.3,658.9279" style="stroke:#181818;stroke-width:1;stroke-linejoin:miter;stroke-miterlimit:10;"/></g><!--link View to IObserver--><g class="link" data-entity-1="ent0008" data-entity-2="ent0004" data-link-type="extension" data-source-line="67" id="lnk13"><path codeLine="67" d="M40.82,184.8979 C40.82,354.1679 40.82,767.5079 40.82,895.7879" fill="none" id="View-to-IObserver" style="stroke:#181818;stroke-width:1;stroke-dasharray:7,7;"/><polygon fill="none" points="40.82,913.7879,46.82,895.7879,34.82,895.7879,40.82,913.7879" style="stroke:#181818;stroke-width:1;stroke-linejoin:miter;stroke-miterlimit:10;"/></g><!--reverse link Subject to IObserver--><g class="link" data-entity-1="ent0005" data-entity-2="ent0004" data-link-type="aggregation" data-source-line="68" id="lnk14"><path codeLine="68" d="M115.12,809.1379 C115.12,847.7579 115.12,882.3179 115.12,913.8879" fill="none" id="Subject-backto-IObserver" style="stroke:#181818;stroke-width:1;"/><polygon fill="none" points="115.12,797.1379,111.12,803.1379,115.12,809.1379,119.12,803.1379,115.12,797.1379" style="stroke:#181818;stroke-width:1;stroke-linejoin:miter;stroke-miterlimit:10;"/><polygon fill="#000000" points="60.12,851.3709,63.0589,842.3258,57.1811,842.3258,60.12,851.3709" style="stroke:#000000;stroke-width:1;stroke-linejoin:miter;stroke-miterlimit:10;"/><text fill="#000000" font-family="sans-serif" font-size="13" lengthAdjust="spacing" textLength="45.331" x="69.12" y="851.4149">notifies</text><text fill="#000000" font-family="sans-serif" font-size="13" lengthAdjust="spacing" textLength="21.567" x="96.3335" y="902.2874">0..*</text></g><!--link Controller to Model--><g class="link" data-entity-1="ent0007" data-entity-2="ent0006" data-link-type="dependency" data-source-line="69" id="lnk15"><path codeLine="69" d="M175.3,401.7579 C175.3,421.3379 175.3,437.1879 175.3,456.2679" fill="none" id="Controller-to-Model" style="stroke:#181818;stroke-width:1;"/><polygon fill="#181818" points="175.3,461.2679,179.3,452.2679,175.3,456.2679,171.3,452.2679,175.3,461.2679" style="stroke:#181818;stroke-width:1;stroke-linejoin:miter;stroke-miterlimit:10;"/><text fill="#000000" font-family="sans-serif" font-size="13" lengthAdjust="spacing" textLength="61.6331" x="113.3" y="427.4149">calculate()</text></g><!--link View to Controller--><g class="link" data-entity-1="ent0008" data-entity-2="ent0007" data-link-type="dependency" data-source-line="70" id="lnk16"><path codeLine="70" d="M120.72,185.1979 C120.72,204.2579 120.72,220.0679 120.72,239.6079" fill="none" id="View-to-Controller" style="stroke:#181818;stroke-width:1;"/><polygon fill="#181818" points="120.72,244.6079,124.72,235.6079,120.72,239.6079,116.72,235.6079,120.72,244.6079" style="stroke:#181818;stroke-width:1;stroke-linejoin:miter;stroke-miterlimit:10;"/><text fill="#000000" font-family="sans-serif" font-size="13" lengthAdjust="spacing" textLength="67.8211" x="52.72" y="210.7949">user action</text></g><?plantuml-src VPFFQjj04CRlUeeXXI2daSbP6479eOGI2at9LQnM4tkRbLRihfowVo1fhuLUUiehz6BQ7afISiWJoA_G9-diohA5dHI3LvgP_UQdsM-ji1BX_djptSoRsyMNvcRncTQlYq_DtU8IseN-VpStpLtpu_uM_bv-W-ON1URDpyKb_V-XtnmeVzlC5rUBArS7nwU7WJaNPSKqAu1BPimpQxN8Qej7N9KduXt2GQz4YXBjh49GsavKC14v0XQLdK61HORQ185NWQEogYsCHZcpB4dWVG3mb8inqsWjchH2dUPi5eCehKjLZ9-dbHOSOyXLdKbqKSjqMepxaL9mPObX8smAHOZZT8PCcvKeP-UuBQeqAyURyOyTzoiqjNmSl2zKg19dgQcmj9lGOvgLUP1xA-CWpJQVsKOxiSpY1fbmOuv1LLQeaicH7tlYCjf_I2_LVbdYz6W-gCyOHpXwcHdKKzIasprssdL5dJ0qhctSTX-utImpLZDkOObLPs-GsvK08-YbHAIMaYQDOKf5IezM7VSy9hEMyKdO5SPhee5Bv_Y_z9EIXdessqPioOvLZfAu_DeX-TfqMUozunx2GI_2cUIrT54_tdr0hPMcYamfwJIcJ8hyiVog_Q4ghLPI-k6kNpgGmb4HYAVRzITFLagzP9eB9jKud0gyy7CmTLO86vu9bBdPXouUqQqqI7jiQF4jaRIdtaDj2rehFLYpmZqbJG9ropuyV_sYu-GhSe9TVyRkfaL8SAf4xcadwYBrGmaBD8QDqSDoITSpRTk7_fpQ4zgBekNmMukxTs_atdlhtkM6AFgGTBuBFFTmI96LDuBEaufsxXmCXtixFQV7u6qZq40Iz0ufYfAbPM9OMs3GDd39NcqCDQa1tGAwNFy0?></g></svg>